#!OML:ASF X:\für Bonn\!DataBase\2005_08_11_Bastian_Final\c3d\Bastian.ASF
:FULLY-SPECIFIED
:DEGREES
108
root 0.789618 13.5048 0.628911 170.078 -4.21824 -175.023
lowerback 32.744 0.376009 0.706604
upperback 7.04978 -1.26759 1.22645
thorax -9.01749 -1.49508 1.52006
lowerneck -13.0703 -4.54025 -3.82512
upperneck -7.99075 -6.57694 9.89538
head 0.179582 -3.66736 3.61006
rclavicle 1.03368e-014 -3.57812e-015
rhumerus 74.5285 -0.183232 36.9831
rradius 43.3535
rwrist -84.0388
rhand -51.0704 -10.0189
rfingers 7.12502
rthumb -23.6162 -38.5886
lclavicle 1.03368e-014 -3.57812e-015
lhumerus 71.7374 -11.8572 -42.8813
lradius 32.308
lwrist 32.1386
lhand -46.9968 24.6935
lfingers 7.12502
lthumb -19.7042 53.7149
rfemur -38.9553 -8.46458 27.3071
rtibia 98.7254
rfoot -28.073 -13.7148
rtoes -18.9905
lfemur -40.4532 5.80347 -12.7468
ltibia 98.2156
lfoot -31.3078 -1.9781
ltoes -24.8702
109
root 0.788079 13.7794 0.609944 170.314 -4.36037 -174.964
lowerback 31.6812 0.27835 0.709294
upperback 7.47029 -1.33999 1.20866
thorax -8.8444 -1.49435 1.60001
lowerneck -13.402 -4.45944 -3.82516
upperneck -7.64796 -6.46633 9.80942
head 0.337041 -3.58811 3.57331
rclavicle 8.34896e-015 4.37326e-015
rhumerus 74.9609 0.213874 37.7205
rradius 43.471
rwrist -84.6595
rhand -51.1723 -9.89595
rfingers 7.12502
rthumb -23.7139 -38.453
lclavicle 8.34896e-015 4.37326e-015
lhumerus 72.4222 -12.2187 -43.7196
lradius 32.383
lwrist 32.9096
lhand -47.1766 24.8555
lfingers 7.12502
lthumb -19.8771 53.859
rfemur -37.3585 -8.3765 27.3277
rtibia 95.5886
rfoot -27.5079 -13.9051
rtoes -18.8135
lfemur -38.8222 5.41715 -12.7724
ltibia 95.012
lfoot -30.8082 -1.88431
ltoes -23.1997
110
root 0.786639 14.0482 0.589212 170.603 -4.49261 -174.933
lowerback 30.8398 0.179761 0.702544
upperback 7.42817 -1.408 1.21908
thorax -8.493 -1.50071 1.61041
lowerneck -13.7062 -4.37033 -3.76915
upperneck -7.33582 -6.35301 9.69487
head 0.476433 -3.51156 3.5185
rclavicle 7.7526e-015 5.96354e-015
rhumerus 75.3737 0.61678 38.3458
rradius 43.5933
rwrist -85.2634
rhand -51.2283 -9.6872
rfingers 7.12502
rthumb -23.7675 -38.2373
lclavicle 7.7526e-015 5.96354e-015
lhumerus 73.0816 -12.5327 -44.7746
lradius 32.6487
lwrist 34.2011
lhand -47.3849 24.9779
lfingers 7.12502
lthumb -20.0772 53.9605
rfemur -35.8253 -8.26908 27.3234
rtibia 92.4609
rfoot -26.8887 -14.1038
rtoes -18.5132
lfemur -37.2679 5.10762 -12.8283
ltibia 91.8316
lfoot -30.2728 -1.78614
ltoes -21.4328
111
root 0.784218 14.3099 0.568169 170.939 -4.63881 -174.882
lowerback 29.9789 0.0774102 0.6831
upperback 7.35982 -1.47472 1.27598
thorax -8.15719 -1.50387 1.67862
lowerneck -14.0332 -4.2768 -3.81873
upperneck -6.98506 -6.21649 9.62066
head 0.637199 -3.41778 3.49945
rclavicle -1.98785e-016 7.15625e-015
rhumerus 75.8902 1.04857 38.8488
rradius 43.6552
rwrist -85.612
rhand -51.2215 -9.6817
rfingers 7.12502
rthumb -23.761 -38.2326
lclavicle -1.98785e-016 7.15625e-015
lhumerus 73.7138 -12.8501 -45.6882
lradius 32.9789
lwrist 35.6387
lhand -47.5476 25.1485
lfingers 7.12502
lthumb -20.2337 54.1147
rfemur -34.3727 -8.15353 27.3428
rtibia 89.3646
rfoot -26.3268 -14.2204
rtoes -18.0967
lfemur -35.7852 4.79096 -12.8737
ltibia 88.6635
lfoot -29.6947 -1.54491
ltoes -19.8697
